<?xml version="1.0" encoding="UTF-8"?>
<svg version="1.1" xmlns="http://www.w3.org/2000/svg" width="1024" height="1024">
<path d="M0 0 C337.92 0 675.84 0 1024 0 C1024 337.92 1024 675.84 1024 1024 C686.08 1024 348.16 1024 0 1024 C0 686.08 0 348.16 0 0 Z " fill="#263039" transform="translate(0,0)"/>
<path d="M0 0 C337.92 0 675.84 0 1024 0 C1024 337.92 1024 675.84 1024 1024 C686.08 1024 348.16 1024 0 1024 C0 686.08 0 348.16 0 0 Z M223 189 C222.0821875 189.80695313 221.164375 190.61390625 220.21875 191.4453125 C213.37276024 197.57978085 206.83906997 204.0291398 200.3125 210.5 C199.43327881 211.36616943 198.55405762 212.23233887 197.64819336 213.12475586 C192.41122503 218.35483279 187.59397705 223.76761759 182.9675293 229.54443359 C181.40406081 231.49571366 179.81815574 233.40430901 178.171875 235.28515625 C155.80889055 260.93044971 138.21999107 290.70139684 123 321 C122.59152832 321.80759766 122.18305664 322.61519531 121.76220703 323.44726562 C93.19588629 380.31640225 79.47472203 444.56526765 79.6875 508 C79.68899048 509.10808014 79.69048096 510.21616028 79.6920166 511.3578186 C79.73548092 529.41221359 80.4619838 547.10779069 83 565 C83.14985352 566.06557129 83.29970703 567.13114258 83.45410156 568.22900391 C84.46514416 575.1871665 85.66717684 582.09672116 87 589 C87.25837646 590.35738281 87.25837646 590.35738281 87.52197266 591.7421875 C104.25051931 677.99537726 147.31831651 755.02596479 208.97570801 817.15093994 C209.97488861 818.15816232 210.97258441 819.16686031 211.96862793 820.17718506 C218.62834305 826.9221657 225.5853003 833.08307563 233 839 C234.08985359 839.92334818 235.17448326 840.85296 236.25 841.79296875 C301.02033035 898.19099787 386.83703205 932.89485886 472.10977173 940.73167419 C473.92705514 940.90038891 475.74370261 941.07626139 477.5592804 941.26243591 C484.02609404 941.9056247 490.41755745 942.15954335 496.9140625 942.16796875 C498.42095139 942.17432091 498.42095139 942.17432091 499.95828247 942.18080139 C503.18056509 942.19061376 506.4027052 942.19073512 509.625 942.1875 C510.72702759 942.18689575 511.82905518 942.1862915 512.96447754 942.18566895 C528.74473791 942.16211375 544.31924116 941.90923942 560 940 C561.60125732 939.82259277 561.60125732 939.82259277 563.23486328 939.64160156 C594.24242649 936.16734003 624.4788516 929.0363439 654 919 C654.89412598 918.69739258 655.78825195 918.39478516 656.70947266 918.08300781 C670.12007094 913.48433931 683.07948412 907.81560862 696 902 C696.825 901.63148926 697.65 901.26297852 698.5 900.88330078 C738.85804138 882.75371188 775.45755987 856.80613886 808 827 C808.51594727 826.52916992 809.03189453 826.05833984 809.56347656 825.57324219 C818.11017247 817.76930082 826.55336904 809.97062205 834.1015625 801.17578125 C836.26745005 798.69347802 838.50876957 796.28944855 840.75 793.875 C846.04312738 788.06859966 850.87532866 781.96093411 855.66064453 775.73339844 C856.92625343 774.09544306 858.20770666 772.47162877 859.49609375 770.8515625 C905.55867599 712.33365802 934.87304445 639.28444993 944.1875 565.625 C944.27235657 564.95880646 944.35721313 564.29261292 944.44464111 563.60623169 C949.43348193 524.02723922 949.41638216 482.41647848 943 443 C942.89345093 442.337724 942.78690186 441.675448 942.67712402 440.99310303 C936.02314578 400.01081572 923.79043815 360.47517175 906 323 C905.57364258 322.09362793 905.14728516 321.18725586 904.70800781 320.25341797 C889.84467098 288.85889168 870.37196353 258.92565989 847.49829102 232.76953125 C846.34917276 231.41238458 845.23010866 230.02974245 844.12475586 228.63671875 C838.45330327 221.51050216 832.33053099 215.05134978 825.85961914 208.65380859 C824.16675955 206.97948667 822.48232043 205.29701679 820.79882812 203.61328125 C819.71401648 202.53337699 818.628747 201.45393239 817.54296875 200.375 C817.0450029 199.87814697 816.54703705 199.38129395 816.03398132 198.86938477 C813.48857171 196.35844132 810.9252988 194.05932743 808 192 C808.64507473 188.29753981 809.67114652 184.95016783 811 181.4375 C815.50171579 169.50464308 815.65793602 157.63752531 810.49609375 145.8515625 C807.49913277 140.13933923 804.27504671 135.74358153 799 132 C799.01571045 132.55349121 799.0314209 133.10698242 799.04760742 133.67724609 C799.43299512 149.30414796 797.84676035 159.31734824 790 173 C789.32778637 174.3305454 788.66015786 175.66343207 788 177 C787.51982422 176.62939453 787.03964844 176.25878906 786.54492188 175.87695312 C710.05197403 117.08604213 618.87059265 82.05633666 522 80 C521.04657715 79.97808594 520.0931543 79.95617187 519.11083984 79.93359375 C416.17902431 77.90571362 314.59684948 113.64397783 223 189 Z " fill="#F9F9F9" transform="translate(0,0)"/>
<path d="M0 0 C0.87696533 0.01281006 1.75393066 0.02562012 2.6574707 0.03881836 C13.65204883 0.38204882 22.23722915 3.67175949 30.125 11.5 C38.70231167 21.87954836 42.14803807 32.02411923 41.125 45.5 C40.80273438 46.46421875 40.48046875 47.4284375 40.1484375 48.421875 C39.03780535 51.83503721 38.55471636 53.93460465 39.125 57.5 C42.47854667 62.16568045 47.44570068 65.49002445 52.00585938 68.88867188 C55.25850273 71.36187996 58.30390516 74.05750967 61.375 76.75 C67.20971013 81.76814764 73.13939109 86.66265076 79.125 91.5 C80.06859375 90.99339844 80.06859375 90.99339844 81.03125 90.4765625 C92.62040384 84.43763595 102.61995034 82.71985102 115.3828125 86.42578125 C119.2291507 87.93253767 122.48851306 90.08686806 125.8359375 92.48828125 C128.10290923 93.79010934 128.10290923 93.79010934 130.48168945 92.76733398 C133.16799023 91.47938835 135.33984644 90.03827862 137.70703125 88.234375 C138.55716797 87.59113281 139.40730469 86.94789063 140.28320312 86.28515625 C141.15912109 85.61355469 142.03503906 84.94195313 142.9375 84.25 C143.80181641 83.59386719 144.66613281 82.93773437 145.55664062 82.26171875 C147.26283278 80.9663004 148.96746153 79.66881995 150.67041016 78.36914062 C154.1406823 75.72657015 157.63088943 73.11092984 161.125 70.5 C160.97111816 69.88656738 160.81723633 69.27313477 160.65869141 68.64111328 C157.89148567 57.21531322 157.4361414 45.05581411 163.125 34.5 C169.04753317 25.03788229 177.86263022 18.02592097 188.69140625 14.9375 C200.90225837 12.74229063 211.70781356 15.23077749 221.9375 22.125 C229.4766 27.98874444 235.57482369 35.8971379 237.125 45.5 C238.35821875 59.41181599 236.30149964 70.50177965 227.0703125 81.53125 C219.74330545 88.94653424 210.56595375 92.77987221 200.18579102 93.06860352 C199.40260498 93.06658936 198.61941895 93.0645752 197.8125 93.0625 C196.57681274 93.06431274 196.57681274 93.06431274 195.31616211 93.06616211 C188.83865625 92.89445086 184.05297499 91.30652291 178.47265625 87.91015625 C176.20741889 86.54950619 174.72113629 85.85535525 172.125 85.5 C169.69762636 87.1436613 167.58353381 88.78403772 165.375 90.6875 C164.04752185 91.79270968 162.71802182 92.89549446 161.38671875 93.99609375 C160.69497559 94.57085449 160.00323242 95.14561523 159.29052734 95.73779297 C155.67081607 98.68334832 151.93245854 101.46657348 148.1875 104.25 C147.48334961 104.77489014 146.77919922 105.29978027 146.05371094 105.84057617 C144.41240927 107.06253879 142.76895793 108.28161331 141.125 109.5 C141.3557019 110.46631348 141.3557019 110.46631348 141.59106445 111.45214844 C144.4007621 123.54399767 144.16818186 135.03385937 137.6875 145.875 C135.77279005 148.74126278 133.7124816 151.20001636 131.125 153.5 C132.45059697 157.14619997 134.06752144 160.09904547 136.3125 163.2578125 C136.92867187 164.13050781 137.54484375 165.00320313 138.1796875 165.90234375 C138.82164062 166.80082031 139.46359375 167.69929687 140.125 168.625 C141.3959764 170.4191695 142.66681569 172.21343612 143.9375 174.0078125 C144.50082031 174.79816895 145.06414062 175.58852539 145.64453125 176.40283203 C146.83104096 178.08359034 147.98377882 179.78816823 149.125 181.5 C152.40814311 181.75138785 152.40814311 181.75138785 156.1875 181.5 C167.23424143 181.20012418 174.57941986 184.19203136 182.75 191.6875 C189.62546856 198.97458197 190.75364052 206.07636102 190.66601562 215.82861328 C190.29089978 225.01320991 186.90058145 231.70858892 180.15625 237.96484375 C171.39712413 244.58472157 162.88165399 246.23248337 152.125 245.5 C144.54035767 244.10376319 138.16976768 240.32790083 133.36328125 234.28515625 C128.80364827 227.64995183 126.73389508 222.39193314 126.75 214.25 C126.75016113 213.49364258 126.75032227 212.73728516 126.75048828 211.95800781 C126.87224115 205.99852536 128.14889034 201.67017591 131.125 196.5 C132.55764331 194.12704697 132.55764331 194.12704697 133.125 191.5 C131.95448763 189.02895849 131.95448763 189.02895849 129.875 186.6875 C127.11405235 183.27719241 124.89322719 180.20136092 123.02734375 176.2265625 C119.92434457 169.74044419 119.92434457 169.74044419 115.125 164.5 C109.67253255 162.80440034 103.91972052 163.80212524 98.34082031 164.37988281 C93.05664477 164.66633217 87.81119497 162.84309748 83.125 160.5 C82.8571167 161.09458008 82.5892334 161.68916016 82.31323242 162.30175781 C81.11289327 164.52239757 79.91797002 165.9243607 78.11328125 167.671875 C77.52401855 168.24945557 76.93475586 168.82703613 76.32763672 169.42211914 C75.7038916 170.02531982 75.08014648 170.62852051 74.4375 171.25 C70.11424524 175.49969295 65.88845876 179.74143774 61.96875 184.37109375 C58.89698309 187.91794326 55.6772559 191.32993364 52.47412109 194.75805664 C49.23180352 198.2444828 46.14370131 201.81784786 43.125 205.5 C43.40214844 206.01949219 43.67929687 206.53898438 43.96484375 207.07421875 C44.32707031 207.77160156 44.68929687 208.46898437 45.0625 209.1875 C45.42214844 209.87199219 45.78179688 210.55648437 46.15234375 211.26171875 C49.90203883 219.89053515 49.4884429 232.72117309 46.5 241.5625 C44.38974104 246.45681989 41.63878789 250.51206242 38.125 254.5 C37.60035156 255.11746094 37.07570313 255.73492188 36.53515625 256.37109375 C29.78526879 263.75626474 20.47891438 267.90345345 10.546875 268.8359375 C-2.77719202 268.97768289 -13.27523083 265.6670421 -23.0703125 256.4296875 C-32.51817949 246.42401286 -34.37497835 236.42572918 -34.1484375 223.0625 C-33.67213731 211.57470534 -27.87899285 203.02449083 -19.6875 195.3125 C-9.58346381 187.12868788 1.38559231 184.57291638 14.125 185.5 C18.94934145 186.50262967 23.01491836 187.75994558 27.125 190.5 C30.99514026 190.94203291 30.99514026 190.94203291 32.78320312 189.03125 C33.31880859 188.3609375 33.85441406 187.690625 34.40625 187 C36.81406365 184.08392717 39.24377828 181.24713993 41.84375 178.5 C42.77767578 177.51 42.77767578 177.51 43.73046875 176.5 C44.99348958 175.16666667 46.25651042 173.83333333 47.51953125 172.5 C51.28705829 168.50626533 54.94872906 164.4430292 58.54492188 160.29443359 C61.16231455 157.321962 63.94718061 154.50422986 66.71875 151.67578125 C68.37513671 149.58628865 68.37513671 149.58628865 67.96875 147.04296875 C67.11654122 144.47450618 66.18352966 141.99065803 65.125 139.5 C61.11288824 130.05973704 60.6614957 119.96329377 64.37109375 110.33984375 C64.61988281 109.73269531 64.86867188 109.12554688 65.125 108.5 C65.62 107.015 65.62 107.015 66.125 105.5 C65.49335937 104.98953125 64.86171875 104.4790625 64.2109375 103.953125 C58.78254176 99.54157573 53.42344366 95.06619175 48.125 90.5 C40.94610753 84.31675622 33.74600704 78.13673562 26.125 72.5 C25.5578125 72.78746094 24.990625 73.07492187 24.40625 73.37109375 C22.1637716 74.48081337 19.90630665 75.53513074 17.625 76.5625 C16.8721875 76.90410156 16.119375 77.24570312 15.34375 77.59765625 C6.79960971 81.07247387 -5.84891988 81.13267236 -14.5 77.875 C-25.4834917 72.486872 -33.81352784 64.11668382 -37.875 52.5 C-40.41889651 43.47870847 -40.36595163 31.1511673 -36.1953125 22.6640625 C-27.96018559 9.16625093 -16.29049296 -0.36305874 0 0 Z " fill="#3897D7" transform="translate(618.875,546.5)"/>
<path d="M0 0 C1.21675919 -0.00807175 2.43351837 -0.01614349 3.68714905 -0.02445984 C6.26496986 -0.03825862 8.84280862 -0.04899948 11.4206543 -0.05688477 C14.00827546 -0.06830666 16.59587494 -0.08859897 19.18334961 -0.1184082 C40.79692488 -0.36677631 62.50416034 0.5557512 83.03515625 7.98828125 C84.02112793 8.33262207 85.00709961 8.67696289 86.02294922 9.03173828 C94.30857241 12.01619125 101.94752194 15.57197047 109.41015625 20.23828125 C109.9834668 20.59583496 110.55677734 20.95338867 111.14746094 21.32177734 C135.07011731 36.53136828 151.70607249 59.3087698 158.68359375 86.703125 C160.14421224 93.80989774 160.63745607 100.75194633 160.72265625 107.98828125 C160.75166016 108.82488281 160.78066406 109.66148437 160.81054688 110.5234375 C160.81892578 111.33167969 160.82730469 112.13992188 160.8359375 112.97265625 C160.85781128 114.05885254 160.85781128 114.05885254 160.88012695 115.16699219 C160.18938016 118.21130168 158.8680963 119.36413092 156.41015625 121.23828125 C147.66623004 123.18429432 135.19581739 123.35981584 126.96484375 119.7109375 C124.42757338 117.40159142 122.4853392 114.97091155 120.41015625 112.23828125 C118.11670095 109.80170531 115.72907172 107.46350186 113.34765625 105.11328125 C112.44829346 104.19699951 112.44829346 104.19699951 111.53076172 103.26220703 C108.29657499 99.98348455 105.07950193 97.12619538 101.28515625 94.48828125 C97.18944077 91.49178353 96.0173106 88.51398465 94.41015625 83.79296875 C91.07020726 75.26044282 84.52387343 70.02553848 76.41015625 66.23828125 C67.42380324 62.66102149 57.81702516 63.38554211 48.984375 66.9765625 C41.8263116 70.48499115 35.7015656 75.50975788 32.67578125 83.07421875 C30.4452835 88.65046311 26.90838785 91.59484315 22.26049805 95.30517578 C15.36602584 100.89846444 9.2518142 107.26862583 3.0390625 113.59667969 C1.79382813 114.8617334 1.79382813 114.8617334 0.5234375 116.15234375 C-0.22123779 116.91498535 -0.96591309 117.67762695 -1.7331543 118.46337891 C-4.60854647 121.21211015 -6.34181667 121.36516709 -10.213974 121.37872314 C-11.67565758 121.38728836 -11.67565758 121.38728836 -13.16687012 121.39602661 C-14.2396521 121.39714447 -15.31243408 121.39826233 -16.41772461 121.39941406 C-18.10805565 121.40686142 -18.10805565 121.40686142 -19.83253479 121.41445923 C-23.57325849 121.42910631 -27.3139398 121.43588653 -31.0546875 121.44140625 C-33.64539085 121.44715488 -36.23609418 121.45291264 -38.82679749 121.4586792 C-43.56785523 121.46785053 -48.30889594 121.47414839 -53.04996103 121.47717595 C-60.03256867 121.48165923 -67.0149808 121.49921959 -73.99752897 121.52817655 C-80.04169125 121.55237391 -86.08576082 121.56011905 -92.12997627 121.5618515 C-94.7036807 121.5648867 -97.27738413 121.57294417 -99.85105705 121.58603668 C-103.44504656 121.60301681 -107.03855546 121.60123661 -110.63256836 121.59472656 C-112.23870499 121.60854874 -112.23870499 121.60854874 -113.87728882 121.62265015 C-114.85456436 121.61708099 -115.8318399 121.61151184 -116.83872986 121.60577393 C-118.11382117 121.60797377 -118.11382117 121.60797377 -119.4146719 121.61021805 C-122.08526181 121.15356877 -122.96704554 120.37117844 -124.58984375 118.23828125 C-124.99389648 116.0402832 -124.99389648 116.0402832 -125.0234375 113.4765625 C-125.03479736 112.53022949 -125.04615723 111.58389648 -125.05786133 110.60888672 C-125.04779053 109.59971191 -125.03771973 108.59053711 -125.02734375 107.55078125 C-125.02049561 106.5158252 -125.01364746 105.48086914 -125.0065918 104.41455078 C-124.82139934 95.4684375 -123.41584694 87.72561757 -120.58984375 79.23828125 C-120.25082031 78.14773438 -119.91179687 77.0571875 -119.5625 75.93359375 C-114.31554833 60.65954939 -104.80679603 48.56772446 -93.58984375 37.23828125 C-92.70425781 36.26181641 -92.70425781 36.26181641 -91.80078125 35.265625 C-81.9086659 24.5364845 -68.83095124 17.01956441 -55.58984375 11.23828125 C-54.9443457 10.9561377 -54.29884766 10.67399414 -53.63378906 10.38330078 C-36.53165249 3.08759295 -18.51400071 0.11903057 0 0 Z " fill="#3995D5" transform="translate(298.58984375,392.76171875)"/>
<path d="M0 0 C14.35695522 11.33131589 23.63381868 25.09031298 27.9609375 42.86328125 C28.24904297 44.0234375 28.24904297 44.0234375 28.54296875 45.20703125 C31.59465509 64.60092576 26.94812308 85.33537972 15.52954102 101.26098633 C4.9809519 115.37523513 -8.29567033 123.93144049 -25.0390625 128.86328125 C-25.791875 129.10820312 -26.5446875 129.353125 -27.3203125 129.60546875 C-43.31947884 134.09754238 -62.6676832 130.48779164 -77.0390625 122.86328125 C-95.93100835 111.57209839 -106.95183846 95.79125811 -113.0390625 74.86328125 C-113.21791992 74.25000977 -113.39677734 73.63673828 -113.58105469 73.00488281 C-117.48638213 54.74393806 -113.8192389 35.28533138 -103.96875 19.6640625 C-92.64753234 3.23225469 -77.9109544 -8.18483036 -58.26928711 -12.77050781 C-37.73494891 -16.14232032 -17.04998397 -11.98758513 0 0 Z " fill="#3996D5" transform="translate(358.0390625,242.13671875)"/>
<path d="M0 0 C1.57667198 -0.01407143 1.57667198 -0.01407143 3.18519592 -0.02842712 C4.87907692 -0.01157616 4.87907692 -0.01157616 6.60717773 0.00561523 C7.7707933 0.00416 8.93440887 0.00270477 10.13328552 0.00120544 C12.59197495 0.00286488 15.05067471 0.01443092 17.50927734 0.03515625 C21.27998785 0.06412614 25.04929433 0.05576206 28.82006836 0.04272461 C31.20744501 0.04896137 33.5948172 0.05735181 35.98217773 0.06811523 C37.67909508 0.06371178 37.67909508 0.06371178 39.41029358 0.05921936 C40.45825607 0.07190353 41.50621857 0.08458771 42.5859375 0.09765625 C43.50875015 0.10305923 44.43156281 0.10846222 45.38233948 0.11402893 C47.72827148 0.50170898 47.72827148 0.50170898 49.3510828 1.53722286 C51.48174403 4.57649734 51.14091943 7.74169059 51.10922241 11.32116699 C51.11624237 12.52852658 51.11624237 12.52852658 51.12340415 13.76027727 C51.13540273 16.46657148 51.12587807 19.17236384 51.11645508 21.87866211 C51.12051862 23.8151021 51.12585928 25.75153977 51.13238525 27.68797302 C51.14609048 32.95441533 51.14074698 38.22068182 51.131248 43.4871273 C51.123668 48.99105692 51.13069238 54.49497118 51.13540649 59.99890137 C51.14086889 69.24286612 51.13365973 78.48675904 51.11938477 87.73071289 C51.10305735 98.42748347 51.10834551 109.12408252 51.12486398 119.82084894 C51.13846505 128.99456837 51.14040526 138.16823608 51.13254797 147.34196234 C51.12786387 152.82554277 51.12726683 158.30904251 51.13715744 163.7926178 C51.14580477 168.94722104 51.13984613 174.10160251 51.12247467 179.25618172 C51.11849786 181.15128778 51.11966417 183.04641241 51.12626266 184.94151115 C51.13442124 187.52201227 51.12422597 190.10179598 51.10922241 192.68225098 C51.11926066 193.81584887 51.11926066 193.81584887 51.1295017 194.97234774 C51.07240324 200.0109285 51.07240324 200.0109285 49.3510828 202.46577454 C47.04870471 203.93551581 45.30717466 203.89680392 42.5859375 203.92163086 C41.53797501 203.93754272 40.49001251 203.95345459 39.41029358 203.96984863 C37.71337624 203.97015076 37.71337624 203.97015076 35.98217773 203.97045898 C34.81951889 203.97807251 33.65686005 203.98568604 32.45896912 203.99353027 C29.99854685 204.00434264 27.53807864 204.0071798 25.07763672 204.00268555 C21.30871175 204.00171361 17.54182402 204.04331834 13.77319336 204.08764648 C11.38452574 204.0928535 8.99585103 204.09554168 6.60717773 204.09545898 C5.47792374 204.11185425 4.34866974 204.12824951 3.18519592 204.1451416 C1.60852394 204.13118347 1.60852394 204.13118347 0 204.11694336 C-0.92360825 204.1189978 -1.84721649 204.12105225 -2.79881287 204.12316895 C-6.400737 203.21798173 -7.29952272 201.60876911 -9.27172852 198.50170898 C-9.65701423 195.72029542 -9.8132496 193.33856939 -9.77966309 190.56236267 C-9.78590305 189.76870365 -9.79214301 188.97504463 -9.79857206 188.15733534 C-9.8145127 185.50090864 -9.80189401 182.84539817 -9.78930664 180.18896484 C-9.79472725 178.28340622 -9.80184956 176.37785178 -9.81054688 174.4723053 C-9.82878917 169.29883964 -9.82170922 164.12569289 -9.80903053 158.95222163 C-9.79890908 153.54085726 -9.8082937 148.12952034 -9.8145752 142.71815491 C-9.82185346 133.63155205 -9.81225851 124.54507922 -9.79321289 115.45849609 C-9.77143731 104.94797253 -9.77849985 94.43775924 -9.80051851 83.92724317 C-9.81865957 74.90716993 -9.82123736 65.88719018 -9.81076384 56.86710459 C-9.80452264 51.47795528 -9.80371065 46.08895191 -9.81690979 40.69981194 C-9.82844903 35.63457749 -9.82047777 30.5697439 -9.79733276 25.50455284 C-9.79203565 23.64373186 -9.79357652 21.78287723 -9.80238342 19.92206955 C-9.81328298 17.38561206 -9.79964403 14.85044639 -9.77966309 12.31407166 C-9.78858597 11.57428965 -9.79750886 10.83450765 -9.80670214 10.072308 C-9.75401562 6.63432378 -9.5090317 4.81230186 -7.39453983 2.04476166 C-4.74488764 0.11875304 -3.25746618 0.00058606 0 0 Z " fill="#F8AA3E" transform="translate(464.271728515625,596.498291015625)"/>
<path d="M0 0 C1.51165489 -0.01891296 1.51165489 -0.01891296 3.05384827 -0.03820801 C4.66966042 -0.02606262 4.66966042 -0.02606262 6.31811523 -0.01367188 C7.43355209 -0.01749878 8.54898895 -0.02132568 9.69822693 -0.02526855 C12.05257064 -0.0279868 14.4069446 -0.02063183 16.76123047 -0.00390625 C20.3674637 0.01752319 23.97170912 -0.00372293 27.57788086 -0.02929688 C29.86629672 -0.02665398 32.15471134 -0.0215298 34.44311523 -0.01367188 C36.06196373 -0.02581726 36.06196373 -0.02581726 37.71351624 -0.03820801 C39.22044289 -0.01929504 39.22044289 -0.01929504 40.7578125 0 C41.63985855 0.00318237 42.5219046 0.00636475 43.43067932 0.00964355 C46.66867362 0.69966612 47.74550955 1.9608238 49.81420898 4.51757812 C50.31478024 7.16941071 50.31478024 7.16941071 50.31541443 10.24865723 C50.32524857 11.41794266 50.3350827 12.58722809 50.34521484 13.79194641 C50.33071289 15.71057747 50.33071289 15.71057747 50.31591797 17.66796875 C50.31970186 19.03151507 50.32520249 20.39505755 50.33229065 21.7585907 C50.34625368 25.45908105 50.33506994 29.15910689 50.31857944 32.85957146 C50.3047297 36.73210898 50.31118892 40.60461951 50.31471252 44.47717285 C50.31741472 50.98046353 50.30393838 57.48356965 50.28076172 63.98681641 C50.25415182 71.50545362 50.25240479 79.02378226 50.26415008 86.54245043 C50.27492942 93.77518188 50.2687396 101.0078017 50.2545948 108.24052429 C50.24883632 111.31860492 50.24891658 114.39660384 50.2536602 117.47468567 C50.25843268 121.09943126 50.24831748 124.72383896 50.22670555 128.34852028 C50.2184867 130.31340037 50.22498782 132.27832472 50.23190308 134.24320984 C50.22199844 135.41249527 50.21209381 136.5817807 50.20188904 137.78649902 C50.19945914 138.80265038 50.19702925 139.81880173 50.19452572 140.86574554 C49.75508895 143.92980407 48.95670483 145.31131642 46.81420898 147.51757812 C44.42358398 148.0255127 44.42358398 148.0255127 41.56420898 148.03515625 C40.49299805 148.04776489 39.42178711 148.06037354 38.31811523 148.07336426 C37.16182617 148.06526733 36.00553711 148.05717041 34.81420898 148.04882812 C33.62698242 148.05265503 32.43975586 148.05648193 31.21655273 148.0604248 C28.70482537 148.06314848 26.19306986 148.05575563 23.68139648 148.0390625 C19.8291928 148.01766137 15.97885442 148.03885093 12.12670898 148.06445312 C9.68920485 148.06180993 7.25170189 148.05668514 4.81420898 148.04882812 C3.65791992 148.05692505 2.50163086 148.06502197 1.31030273 148.07336426 C0.2390918 148.06075562 -0.83211914 148.04814697 -1.93579102 148.03515625 C-2.87938477 148.03197388 -3.82297852 148.0287915 -4.79516602 148.0255127 C-7.18579102 147.51757812 -7.18579102 147.51757812 -8.8105545 145.84402466 C-10.51814704 142.95534137 -10.56792218 141.13251107 -10.5802002 137.78649902 C-10.59154999 136.61721359 -10.60289978 135.44792816 -10.61459351 134.24320984 C-10.6116629 132.96412247 -10.6087323 131.6850351 -10.60571289 130.3671875 C-10.61305394 129.00363977 -10.62164028 127.64009827 -10.63137817 126.27656555 C-10.65359684 122.5761836 -10.65652479 118.87602429 -10.65463066 115.17558479 C-10.654511 112.08647797 -10.66307308 108.9974184 -10.67140818 105.90832472 C-10.69064265 98.62163105 -10.69352556 91.33505195 -10.68676758 84.04833984 C-10.68012285 76.52959866 -10.70300795 69.01134758 -10.74008131 61.49270582 C-10.77075731 55.03738559 -10.78214076 48.58222321 -10.7782445 42.12683153 C-10.77617518 38.27122771 -10.78168397 34.41600543 -10.80613708 30.56047058 C-10.82836822 26.93559401 -10.82655799 23.3115159 -10.80620956 19.68663597 C-10.80116341 17.72171128 -10.82084317 15.75677195 -10.84121704 13.79194641 C-10.83000824 12.62266098 -10.81879944 11.45337555 -10.80725098 10.24865723 C-10.80796349 9.23250587 -10.80867599 8.21635452 -10.8094101 7.16941071 C-9.52839233 1.72210358 -5.18827256 0.01870213 0 0 Z " fill="#E86449" transform="translate(381.185791015625,651.482421875)"/>
<path d="M0 0 C5.24164252 4.15716476 8.65190093 10.08070279 10.75 16.375 C11.51621738 28.25764982 11.17039326 36.97474527 3.625 46.625 C-1.4381903 52.11560247 -8.97176619 56.10534163 -16.47265625 56.578125 C-17.73980469 56.59359375 -19.00695312 56.6090625 -20.3125 56.625 C-21.56160156 56.65078125 -22.81070313 56.6765625 -24.09765625 56.703125 C-27.44212292 56.59499089 -30.31903556 55.85023534 -33.50952148 54.85449219 C-34.40017807 54.5790155 -35.29083466 54.30353882 -36.20848083 54.01971436 C-36.88218216 53.80695862 -37.55588348 53.59420288 -38.25 53.375 C-38.70461798 53.83422694 -39.15923595 54.29345388 -39.62763023 54.76659679 C-50.71575592 65.96538333 -61.81785531 77.15009995 -72.93550682 88.31956768 C-78.31169972 93.72148775 -83.68314165 99.12797483 -89.04345703 104.5456543 C-93.71822752 109.27042824 -98.40186802 113.98619887 -103.09614909 118.69159156 C-105.57899506 121.1809277 -108.05732646 123.67439724 -110.52506638 126.17871666 C-113.28728151 128.98153768 -116.06927588 131.76421439 -118.85302734 134.5456543 C-119.65864105 135.36924438 -120.46425476 136.19283447 -121.29428101 137.04138184 C-128.70314391 144.38419786 -136.75737862 149.39342594 -147.375 149.6875 C-161.49218802 149.49952146 -169.68928756 140.10657149 -179.03125 130.69140625 C-179.73020386 129.99103745 -180.42915771 129.29066864 -181.14929199 128.56907654 C-183.35191539 126.36091542 -185.55101081 124.14927963 -187.75 121.9375 C-189.25497508 120.42750186 -190.76018135 118.9177341 -192.265625 117.40820312 C-195.92975829 113.73312359 -199.5907348 110.05492644 -203.25 106.375 C-202.06712402 105.20457153 -202.06712402 105.20457153 -200.86035156 104.01049805 C-198.68448634 101.8136719 -196.82522305 99.67076399 -195 97.1875 C-194.49984375 96.51332031 -193.9996875 95.83914063 -193.484375 95.14453125 C-192.19759418 93.39096713 -192.19759418 93.39096713 -191.25 91.375 C-187.39498001 91.93550284 -185.64639124 93.61597708 -182.94921875 96.34765625 C-182.13646484 97.16556641 -181.32371094 97.98347656 -180.48632812 98.82617188 C-179.64521484 99.68791016 -178.80410156 100.54964844 -177.9375 101.4375 C-176.69323242 102.68950195 -176.69323242 102.68950195 -175.42382812 103.96679688 C-171.02897029 108.4171541 -166.79036947 112.95481828 -162.70874023 117.69360352 C-161.02047824 119.63955503 -159.26330959 121.49524221 -157.4375 123.3125 C-156.87417969 123.87839844 -156.31085938 124.44429687 -155.73046875 125.02734375 C-153.15505057 127.37172177 -151.0268734 127.66435768 -147.625 127.875 C-146.80773437 127.9471875 -145.99046875 128.019375 -145.1484375 128.09375 C-140.43284897 126.92438573 -137.67155335 123.70898551 -134.25 120.375 C-132.87569824 119.04009521 -132.87569824 119.04009521 -131.47363281 117.67822266 C-128.88917546 115.14835903 -126.3292571 112.5948794 -123.77709961 110.0324707 C-122.19040054 108.44041034 -120.59842258 106.8537701 -119.00585938 105.26757812 C-117.97103344 104.23209125 -116.93651783 103.19629414 -115.90234375 102.16015625 C-114.52550415 100.78162476 -114.52550415 100.78162476 -113.12084961 99.37524414 C-110.99390372 97.19803236 -108.99442375 94.93960546 -107.01196289 92.63037109 C-102.71570649 87.67970181 -98.06925219 83.10648439 -93.40625 78.50390625 C-91.98802074 77.09508927 -90.56979762 75.68626606 -89.15192413 74.27709103 C-85.69423979 70.84213108 -82.23107563 67.41271302 -78.76513672 63.98608398 C-76.80916493 62.05187319 -74.8560057 60.11489669 -72.90563965 58.17503357 C-71.08123918 56.36085996 -69.25277629 54.55075905 -67.41955566 52.74549866 C-56.33494177 42.40664953 -56.33494177 42.40664953 -52.47460938 28.50976562 C-52.50361328 27.61966797 -52.53261719 26.72957031 -52.5625 25.8125 C-52.7553702 15.90468651 -50.66345437 9.38420785 -43.94921875 1.9765625 C-31.33958839 -9.90837646 -13.84990834 -9.21581803 0 0 Z " fill="#3897D7" transform="translate(584.25,413.625)"/>
<path d="M0 0 C4.10324795 0.58617828 4.99918732 1.28883194 7.5 4.5 C8.00222206 7.1574192 8.00222206 7.1574192 8.00552368 10.24453735 C8.01654617 11.4167131 8.02756866 12.58888885 8.03892517 13.79658508 C8.03075272 15.07881454 8.02258026 16.36104401 8.01416016 17.68212891 C8.01962138 19.04892263 8.02686304 20.41571023 8.03575134 21.78248596 C8.05108592 24.72310421 8.05389188 27.66337358 8.04698563 30.60402298 C8.03620681 35.25091467 8.05357048 39.89744102 8.07479858 44.54428101 C8.10505717 51.89059538 8.11675356 59.23680163 8.12037504 66.58317316 C8.12702596 79.74847885 8.15594812 92.91371016 8.2054714 106.07892358 C8.22200265 110.70141851 8.2273798 115.3237562 8.22388101 119.94627786 C8.22344507 122.81659688 8.23099168 125.68685612 8.24055672 128.55715752 C8.244534 130.52959368 8.23845585 132.50204201 8.23213196 134.47447205 C8.2375148 135.64100815 8.24289764 136.80754425 8.2484436 138.00942993 C8.24877909 139.02742487 8.24911457 140.04541981 8.24946022 141.09426308 C8.26377708 143.68381663 8.26377708 143.68381663 10.5 145.5 C12.82155892 145.80297154 12.82155892 145.80297154 15.56068993 145.75053978 C16.63857446 145.75553848 17.716459 145.76053717 18.8270067 145.76568735 C20.61762999 145.75869253 20.61762999 145.75869253 22.44442749 145.7515564 C23.70513176 145.75452654 24.96583602 145.75749667 26.26474345 145.76055682 C29.77562401 145.768627 33.2863986 145.76427582 36.79727888 145.75803804 C40.57923162 145.75351815 44.36116369 145.76053716 48.14311218 145.76634216 C54.7003286 145.77498871 61.25751803 145.77678005 67.81473923 145.77439499 C77.29982716 145.77130314 86.78485518 145.78291577 96.26992805 145.79894479 C111.66334512 145.82492811 127.05676223 145.84493595 142.45019531 145.85839844 C143.83307489 145.85961399 143.83307489 145.85961399 145.24389143 145.8608541 C158.32832895 145.8720765 171.41276222 145.87735668 184.4972039 145.88024123 C185.41851724 145.88044522 186.33983058 145.88064921 187.2890625 145.88085938 C188.20925707 145.88105931 189.12945165 145.88125925 190.07753091 145.88146524 C205.40965423 145.8851952 220.74171269 145.90426059 236.07380354 145.93595374 C245.53709725 145.9548961 255.00022487 145.96081282 264.46353234 145.95013656 C270.94623218 145.9438286 277.42881272 145.95182635 283.91148637 145.97119068 C287.6547854 145.98189862 291.39779499 145.98598078 295.1410923 145.97271919 C299.19484086 145.95850158 303.24787916 145.97494221 307.30160522 145.99447632 C308.49089264 145.98535166 309.68018006 145.976227 310.90550649 145.96682584 C311.98860652 145.97704003 313.07170655 145.98725423 314.18762779 145.99777794 C315.12369342 145.99821267 316.05975905 145.99864741 317.02419031 145.99909532 C320.28636065 146.65909613 321.48020552 147.89998211 323.5 150.5 C324 154 324 154 323.5 157.5 C321.46452685 160.13098815 320.27053609 161.34561615 316.97453672 162.00599933 C316.01492573 162.00881703 315.05531475 162.01163473 314.06662464 162.01453781 C312.95649094 162.0274356 311.84635725 162.04033338 310.70258313 162.05362201 C309.48305202 162.0474276 308.2635209 162.04123319 307.0070343 162.03485107 C305.71139704 162.0439133 304.41575979 162.05297553 303.08086079 162.06231236 C299.48147101 162.08681515 295.88245239 162.08624663 292.2829982 162.08153486 C288.40209269 162.08071956 284.52130702 162.10278705 280.64045715 162.12176514 C273.03524713 162.1550122 265.43016111 162.1659855 257.82488451 162.16821465 C251.64225823 162.17011468 245.45967289 162.17833061 239.27705956 162.19101715 C221.7489283 162.2262523 204.22089506 162.24469373 186.69272814 162.24169526 C185.74748967 162.24153543 184.8022512 162.24137561 183.82836914 162.24121094 C182.40878009 162.24096565 182.40878009 162.24096565 180.96051248 162.24071541 C165.62807714 162.23909015 150.29603501 162.27735083 134.96371339 162.3337644 C119.22131249 162.39122965 103.4791033 162.41884448 87.73659486 162.4153893 C78.89809873 162.41406155 70.06001459 162.4250422 61.22161293 162.4681015 C53.69471443 162.50453601 46.16841453 162.51321236 38.641466 162.48606381 C34.80202393 162.47300743 30.96372993 162.47275258 27.12439728 162.50747681 C22.95802538 162.54477051 18.79430782 162.51982326 14.62788391 162.48895264 C13.4195064 162.50952689 12.2111289 162.53010114 10.96613389 162.55129886 C3.56734214 162.43012234 -0.66378039 161.03055325 -5.88386887 155.6532352 C-8.11535186 152.68014246 -8.61979541 150.6172468 -8.60920715 146.90826416 C-8.62735977 145.64933853 -8.64551239 144.3904129 -8.66421509 143.09333801 C-8.63874974 141.72138858 -8.61238323 140.34945563 -8.58520508 138.97753906 C-8.58922012 137.51487211 -8.5971436 136.05221149 -8.60865784 134.58958435 C-8.62824842 130.63655749 -8.59197993 126.68585446 -8.54427171 122.73313999 C-8.50274142 118.59107374 -8.50934124 114.44905905 -8.50968933 110.30682373 C-8.50319874 103.35633386 -8.46227998 96.40673312 -8.39868164 89.45654297 C-8.3253887 81.42195069 -8.29736835 73.38823178 -8.295533 65.35332513 C-8.2932847 56.79151264 -8.26054319 48.23002496 -8.21751952 39.66833019 C-8.20703105 37.2030775 -8.20197321 34.73786169 -8.19800758 32.27259064 C-8.1900984 28.40138428 -8.16158037 24.53085192 -8.11707115 20.65989876 C-8.10379034 19.23934437 -8.0972568 17.81870857 -8.09794617 16.39809227 C-8.09766984 14.45990422 -8.07032425 12.52177619 -8.0415802 10.58380127 C-8.033578 9.49910175 -8.02557581 8.41440224 -8.01733112 7.29683304 C-7.11141942 2.39922747 -4.80637049 0.68662436 0 0 Z " fill="#3998D9" transform="translate(225.5,672.5)"/>
<path d="M0 0 C1.54179932 -0.01891296 1.54179932 -0.01891296 3.11474609 -0.03820801 C4.77111084 -0.02606262 4.77111084 -0.02606262 6.4609375 -0.01367188 C8.16950928 -0.01941223 8.16950928 -0.01941223 9.91259766 -0.02526855 C12.31999597 -0.02798962 14.72742376 -0.02061498 17.13476562 -0.00390625 C20.82228432 0.01749887 24.50785449 -0.0037032 28.1953125 -0.02929688 C30.53385847 -0.02665364 32.87240323 -0.02152874 35.2109375 -0.01367188 C36.31518066 -0.0217688 37.41942383 -0.02986572 38.55712891 -0.03820801 C39.58499512 -0.02559937 40.61286133 -0.01299072 41.671875 0 C43.02611572 0.00477356 43.02611572 0.00477356 44.40771484 0.00964355 C47.80152715 0.71955975 48.87985128 1.6458217 50.8359375 4.51757812 C51.22533231 7.5249053 51.37304758 10.16403682 51.33764648 13.16992188 C51.34304947 14.04190216 51.34845245 14.91388245 51.35401917 15.81228638 C51.36652264 18.69356263 51.35000473 21.57384282 51.33203125 24.45507812 C51.3321862 26.45760144 51.33367452 28.46012507 51.33644104 30.46264648 C51.33782576 34.65915182 51.32525464 38.85531567 51.30249023 43.05175781 C51.27410552 48.43223794 51.27684202 53.81215061 51.28958035 59.19267273 C51.29653369 63.32764537 51.28875215 67.46248674 51.27632332 71.59744263 C51.27180548 73.58138526 51.27147492 75.56534197 51.27538872 77.54928589 C51.27829754 80.32156282 51.26180971 83.0930564 51.23999023 85.86523438 C51.24449188 86.68613556 51.24899353 87.50703674 51.25363159 88.35281372 C51.21153721 91.57000585 51.03433016 94.10170837 49.6388092 97.0269928 C47.2030158 99.04086761 45.72971065 99.01873349 42.5859375 99.01928711 C41.51472656 99.02866806 40.44351563 99.03804901 39.33984375 99.04771423 C38.18355469 99.03648026 37.02726562 99.02524628 35.8359375 99.01367188 C34.64871094 99.01512711 33.46148437 99.01658234 32.23828125 99.01808167 C29.72653755 99.01642062 27.2147839 99.00483664 24.703125 98.98413086 C20.85112421 98.95519222 17.00050002 98.96351551 13.1484375 98.9765625 C10.71093079 98.97032496 8.27342844 98.9619339 5.8359375 98.95117188 C4.67964844 98.95410751 3.52335937 98.95704315 2.33203125 98.96006775 C1.26082031 98.94738358 0.18960937 98.9346994 -0.9140625 98.92163086 C-1.85765625 98.91622787 -2.80125 98.91082489 -3.7734375 98.90525818 C-6.65568434 98.43785338 -7.36213097 97.76217439 -9.1640625 95.51757812 C-9.4655773 92.57105924 -9.58403115 89.83509288 -9.56811523 86.88696289 C-9.57497849 86.00537506 -9.58184174 85.12378723 -9.58891296 84.21548462 C-9.60723903 81.29648813 -9.60333514 78.37802614 -9.59765625 75.45898438 C-9.60221537 73.43261031 -9.60752013 71.4062378 -9.61354065 69.37986755 C-9.62248324 65.13037846 -9.62003567 60.88107717 -9.61010742 56.6315918 C-9.59861816 51.1826325 -9.61882291 45.73432126 -9.64802456 40.28544712 C-9.66636069 36.09986748 -9.66609923 31.91444387 -9.66038704 27.72883415 C-9.6602335 25.71975737 -9.66630486 23.71067023 -9.67867851 21.70163155 C-9.69353727 18.89320219 -9.68294912 16.0859792 -9.66577148 13.27758789 C-9.67543945 12.44576492 -9.68510742 11.61394196 -9.69506836 10.75691223 C-9.64977754 7.22520214 -9.46423907 4.95945358 -7.45545959 2.00242615 C-4.73406668 0.23893658 -3.22726605 0.01137578 0 0 Z " fill="#F7B541" transform="translate(296.1640625,700.482421875)"/>
<path d="M0 0 C5.12190163 3.89924258 8.13953605 7.28850319 10.875 13.125 C11.16890625 13.73214844 11.4628125 14.33929688 11.765625 14.96484375 C16.98420909 25.95259648 16.26547148 38.68117365 12.24609375 49.98828125 C7.88617062 60.5259011 1.58633402 68.60021048 -6 77 C-6.72517822 77.8156543 -7.45035645 78.63130859 -8.19750977 79.47167969 C-13.73769969 85.62545658 -19.47881598 91.52626541 -25.37890625 97.3359375 C-26.12262985 98.06947952 -26.86635345 98.80302155 -27.63261414 99.55879211 C-30.7143911 102.59529871 -33.79788093 105.62981836 -36.89624023 108.64941406 C-57.93302517 128.62181305 -57.93302517 128.62181305 -66.6875 155.3125 C-66.55035706 175.45567061 -54.8871284 198.25062771 -43 214 C-43.33 214.66 -43.66 215.32 -44 216 C-51.79053246 209.46718673 -59.52837918 202.89892974 -67 196 C-67.58910156 195.47664062 -68.17820312 194.95328125 -68.78515625 194.4140625 C-78.63412392 185.24031956 -86.17358397 173.49486797 -91 161 C-91.37253906 160.06671875 -91.74507812 159.1334375 -92.12890625 158.171875 C-94.99471989 147.73671502 -93.90988575 135.57350764 -89 126 C-88.59910156 125.19820313 -88.19820312 124.39640625 -87.78515625 123.5703125 C-80.91482237 111.10414146 -70.57748052 101.28892533 -60 92 C-58.24849954 90.41832665 -56.49841332 88.83508527 -54.75 87.25 C-51.89470694 84.68476846 -49.02322062 82.14156194 -46.125 79.625 C-16.27176882 54.30421272 -16.27176882 54.30421272 0 20 C0.21902992 16.49382071 0.19134404 13.01113093 0.125 9.5 C0.11597656 8.5821875 0.10695313 7.664375 0.09765625 6.71875 C0.07432432 4.47888444 0.04159235 2.23958817 0 0 Z " fill="#E96448" transform="translate(799,132)"/>
<path d="M0 0 C8.31440776 7.43433117 12.01057555 17.68123021 13.15234375 28.50390625 C13.58232601 39.49425278 9.35469318 49.6983283 2.09375 57.8828125 C-7.36755073 66.84002754 -18.40411116 69.38282781 -31.00390625 69.15234375 C-42.44015515 68.62524308 -50.75893712 62.61336573 -58.375 54.5625 C-66.67351492 44.89448557 -68.06013381 34.31227962 -67.125 21.875 C-64.82617442 11.08713779 -58.07519195 2.18257062 -49.125 -4.125 C-32.3967017 -14.34410158 -15.47802732 -10.52505858 0 0 Z " fill="#F6B23F" transform="translate(642.125,222.125)"/>
<path d="M0 0 C0.99 0 1.98 0 3 0 C4.4296875 1.7578125 4.4296875 1.7578125 5.875 4.125 C7.63039883 6.97392597 9.45214445 9.60434923 11.60595703 12.15966797 C12.7910083 13.56563232 12.7910083 13.56563232 14 15 C13.56453354 15.43324585 13.12906708 15.8664917 12.68040466 16.31286621 C8.11840131 20.85261951 3.56002233 25.39598935 -0.99633789 29.94140625 C-2.69366667 31.63372911 -4.39189477 33.3251505 -6.09106445 35.015625 C-8.54359341 37.45592369 -10.99279096 39.89952506 -13.44140625 42.34375 C-14.19273331 43.08991577 -14.94406036 43.83608154 -15.71815491 44.6048584 C-19.721768 48.60805162 -23.5277485 52.70596312 -27.22367859 56.99337769 C-30.46419563 60.65402928 -33.929479 64.0922238 -37.3828125 67.55078125 C-38.16010712 68.33140427 -38.93740173 69.11202728 -39.73825073 69.91630554 C-41.36895196 71.55203506 -43.0009792 73.18644362 -44.63427734 74.81958008 C-47.13016706 77.31767162 -49.61792915 79.82367497 -52.10546875 82.33007812 C-53.69742699 83.92496809 -55.28985848 85.51938585 -56.8828125 87.11328125 C-57.62250275 87.86015701 -58.36219299 88.60703278 -59.1242981 89.37654114 C-65.71738298 95.94055582 -71.72456505 99.88461179 -81.3125 100.375 C-88.36633514 100.19505523 -94.40375107 97.15344523 -100.1875 93.3125 C-103.93932463 90.938591 -106.41101189 89.52527709 -111 90 C-117.80651304 94.84219996 -123.50776374 101.54065055 -129.28125 107.53515625 C-131.57315644 109.90151732 -133.86575226 112.26720795 -136.15869141 114.63256836 C-137.72763406 116.26089852 -139.28846124 117.89708499 -140.84130859 119.54077148 C-143.11064584 121.93750594 -145.41082475 124.3006345 -147.71875 126.66015625 C-148.74264832 127.76617943 -148.74264832 127.76617943 -149.78723145 128.89454651 C-153.50174684 132.63122014 -155.94165603 134.45629958 -161.32226562 134.57983398 C-164.83600087 134.39169715 -166.02186115 133.98644609 -169.125 132.0625 C-171.72083548 127.82263539 -172.14228697 124.82515117 -171 120 C-169.69172668 118.09683228 -169.69172668 118.09683228 -167.97973633 116.24853516 C-167.3439566 115.55697327 -166.70817688 114.86541138 -166.0531311 114.15289307 C-165.37559784 113.44243835 -164.69806458 112.73198364 -164 112 C-163.3431723 111.30968689 -162.6863446 110.61937378 -162.00961304 109.90814209 C-159.8808835 107.70067676 -157.73190061 105.51510494 -155.57421875 103.3359375 C-154.39277031 102.14238144 -154.39277031 102.14238144 -153.18745422 100.92471313 C-151.53082 99.2543369 -149.87269084 97.58544209 -148.21313477 95.91796875 C-146.53024919 94.22353316 -144.85184732 92.52463255 -143.17797852 90.82128906 C-140.73658477 88.33702183 -138.28201953 85.86646157 -135.82421875 83.3984375 C-135.08846115 82.64517181 -134.35270355 81.89190613 -133.59465027 81.11581421 C-128.03125488 75.57510583 -121.16826289 69.0678825 -112.98828125 68.30859375 C-104.96157802 68.59008281 -99.46582489 68.83200508 -92.8359375 73.53515625 C-87.96798318 77.01102325 -87.96798318 77.01102325 -82.25 78.5625 C-75.64707772 77.41968653 -71.72648604 73.01046609 -67.1953125 68.42578125 C-66.5531076 67.78311813 -65.91090271 67.14045502 -65.24923706 66.47831726 C-63.8937623 65.11982896 -62.54071121 63.75891857 -61.18994141 62.39575195 C-59.14400811 60.33167666 -57.09030164 58.27560203 -55.03515625 56.22070312 C-53.71307136 54.89369757 -52.39144223 53.56623775 -51.0703125 52.23828125 C-50.46591339 51.63276932 -49.86151428 51.02725739 -49.23880005 50.40339661 C-46.21893696 47.35054079 -43.3090757 44.24416962 -40.5 40.99560547 C-37.13347859 37.10595876 -33.58158422 33.45274248 -29.9296875 29.83203125 C-29.28556915 29.18932785 -28.64145081 28.54662445 -27.97781372 27.88444519 C-25.94590995 25.85807085 -23.91054143 23.83521951 -21.875 21.8125 C-20.50367223 20.44619838 -19.13257663 19.0796637 -17.76171875 17.71289062 C-15.24605987 15.20534431 -12.72908176 12.69913947 -10.21044922 10.19458008 C-7.46881228 7.46785818 -4.73282613 4.73555593 -2 2 C-1.34 1.34 -0.68 0.68 0 0 Z " fill="#3997D7" transform="translate(328,504)"/>
<path d="M0 0 C1.1446875 0.01353516 1.1446875 0.01353516 2.3125 0.02734375 C2.869375 0.03894531 3.42625 0.05054688 4 0.0625 C4 1.3825 4 2.7025 4 4.0625 C2.96101562 4.43761719 1.92203125 4.81273437 0.8515625 5.19921875 C-13.35030077 9.5898631 -13.35030077 9.5898631 -25 18.0625 C-25.64321029 21.05943768 -25.64321029 21.05943768 -24 24.0625 C-3.74505709 38.33116424 32.79463576 37.2009654 56.30859375 37.265625 C57.02047411 37.26845238 57.73235447 37.27127975 58.46580696 37.27419281 C62.2481229 37.2890749 66.03040191 37.29836826 69.81274414 37.30273438 C72.8656029 37.30707699 75.91817233 37.32081913 78.97094727 37.34375 C99.53118918 37.49503277 119.57690112 36.62234207 140 34.0625 C140.96058823 33.94223953 141.92117645 33.82197906 142.91087341 33.69807434 C159.34457731 31.59629439 176.29569013 27.9320288 191 20.0625 C191.65484375 19.78277344 192.3096875 19.50304687 192.984375 19.21484375 C194.95256365 18.35772796 194.95256365 18.35772796 197 16.0625 C197.487381 12.67225636 197.35026019 9.46132109 197 6.0625 C202.44886576 7.32967808 204.97896591 9.35324098 208 14.0625 C208.79695238 17.64878572 208.6989072 19.726512 206.984375 23.00390625 C191.5336843 43.78101928 152.06868687 46.54444153 128.45703125 50.0703125 C108.39642576 52.87512411 88.54339145 53.26472754 68.3125 53.25 C67.04431427 53.25006042 65.77612854 53.25012085 64.46951294 53.25018311 C46.22624357 53.2377787 28.15824761 52.94956044 10 51.0625 C8.50265936 50.9277706 7.005268 50.79360296 5.5078125 50.66015625 C-8.88657094 49.16371045 -23.67625576 46.34423389 -37 40.5625 C-37.94166016 40.15414917 -37.94166016 40.15414917 -38.90234375 39.73754883 C-44.2750471 37.23562666 -48.60263318 34.13601205 -51.9375 29.1875 C-53.3414369 25.05827383 -53.43490585 23.22372697 -52 19.0625 C-40.62713193 5.33120306 -17.29329296 -0.2702077 0 0 Z " fill="#3997D6" transform="translate(671,465.9375)"/>
<path d="M0 0 C6.75950727 4.83334679 12.87835763 12.00063295 14.3125 20.375 C15.22339093 31.82945347 14.90865275 41.64723702 7.6875 51.125 C1.34480757 57.91730101 -7.10390503 61.85587658 -16.30078125 62.7109375 C-28.97571691 62.84478054 -36.3488469 60.49203299 -45.5546875 51.67578125 C-52.84384328 43.81257107 -54.17658599 35.2864431 -54 24.87890625 C-53.26121528 16.59528259 -49.44871839 9.32825901 -43.6875 3.375 C-30.70543622 -7.42705684 -14.51878965 -8.84393278 0 0 Z " fill="#F6B13D" transform="translate(381.6875,461.625)"/>
<path d="M0 0 C1.4767588 0.77850871 2.93485119 1.5931874 4.375 2.4375 C5.1896875 2.87707031 6.004375 3.31664062 6.84375 3.76953125 C15.16403494 8.60263794 21.85632847 15.1429822 28.70556641 21.81494141 C30.14844516 23.21730645 31.60969571 24.60072273 33.07421875 25.98046875 C33.79222656 26.66753906 34.51023437 27.35460937 35.25 28.0625 C36.14332031 28.91714844 36.14332031 28.91714844 37.0546875 29.7890625 C38.54692326 31.65214975 38.9776209 33.10417142 39.375 35.4375 C38.27432004 36.25471717 37.16930269 37.06609451 36.0625 37.875 C35.44761719 38.32746094 34.83273437 38.77992188 34.19921875 39.24609375 C30.28914297 41.7997835 25.9067063 42.10416082 21.375 41.4375 C16.46477725 39.41721761 12.95482856 36.55292246 9.0625 33.0625 C0.40629106 25.55696466 0.40629106 25.55696466 -10.25 21.8125 C-16.02852416 22.88259707 -20.0371288 26.34207504 -23.44140625 30.9765625 C-24.36784259 32.33103483 -25.28269781 33.69348116 -26.1875 35.0625 C-27.22986249 36.58724386 -28.27421153 38.11063112 -29.3203125 39.6328125 C-29.85946289 40.42204102 -30.39861328 41.21126953 -30.95410156 42.02441406 C-33.74419533 46.05382475 -36.6491899 49.99667557 -39.5625 53.9375 C-40.14684814 54.72938721 -40.73119629 55.52127441 -41.33325195 56.3371582 C-45.81531823 62.39001613 -50.38725499 68.37083091 -54.98291016 74.33764648 C-60.03353399 80.91816954 -64.85905089 87.64898107 -69.625 94.4375 C-73.63955327 92.50456695 -77.38655525 90.19264924 -81.1875 87.875 C-83.29886195 86.62983783 -85.41766748 85.50028973 -87.625 84.4375 C-85.02929845 79.69260519 -82.25427673 75.49561996 -78.875 71.25 C-75.02748922 66.34081716 -71.48249126 61.32509251 -68.0625 56.10546875 C-59.74189926 43.49001247 -50.9627704 31.14896241 -42.0625 18.9375 C-41.24241455 17.80042603 -41.24241455 17.80042603 -40.40576172 16.64038086 C-30.85049644 3.64831656 -17.06681708 -7.23484637 0 0 Z " fill="#E96549" transform="translate(495.625,311.5625)"/>
<path d="M0 0 C-4.93990333 4.54050689 -9.90387839 8.98575726 -15.1875 13.125 C-25.592836 21.42004945 -35.68895548 32.35810611 -38 46 C-38.82920342 54.39699669 -38.18944951 60.699023 -34 68 C-33.29008189 69.24072371 -32.58047497 70.4816255 -31.87109375 71.72265625 C-31.4848584 72.398125 -31.09862305 73.07359375 -30.70068359 73.76953125 C-24.24138644 85.09628575 -18.5772447 95.33987667 -21.625 108.75 C-25.94537467 122.32832039 -35.3475875 131.52240395 -47.546875 138.4453125 C-49.33714428 139.35314408 -51.16426028 140.1880382 -53 141 C-52.00415411 138.92454548 -50.9838854 136.97568161 -49.7109375 135.0546875 C-44.32240882 126.26287755 -44.44953681 115.64020361 -46.74609375 105.8046875 C-49.49519069 98.57446185 -53.95225178 92.17492634 -58.03564453 85.64379883 C-64.86243749 74.57101663 -68.11342855 63.92936254 -65.33984375 50.8984375 C-60.04826615 33.16821644 -46.68128806 19.20999019 -30.89453125 10.234375 C-24.19420196 6.6875954 -17.42093851 3.92727398 -10.25 1.5 C-9.46302734 1.23243896 -8.67605469 0.96487793 -7.86523438 0.68920898 C-2.25525967 -1.12762984 -2.25525967 -1.12762984 0 0 Z " fill="#E86449" transform="translate(827,227)"/>
<path d="M0 0 C0 0.66 0 1.32 0 2 C-1.52377931 2.50792644 -3.04759022 3.01575821 -4.5715332 3.52319336 C-5.91564099 3.97166881 -7.25921712 4.42174038 -8.60229492 4.87329102 C-12.05247951 6.03083696 -15.50581127 7.16484645 -18.984375 8.234375 C-30.20076434 11.70131968 -30.20076434 11.70131968 -40 18 C-40 18.99 -40 19.98 -40 21 C-21.61742499 28.29635925 -1.89241141 27.40226262 17.5625 27.375 C18.89683024 27.37511232 20.23116048 27.37523446 21.56549072 27.37536621 C50.32135359 27.35427519 78.80381256 25.64763717 107.0078125 19.734375 C110.38022797 19.0469028 113.54767404 18.84558286 117 19 C103.81640113 36.32844245 78.92396195 37.69310581 58.72949219 40.44580078 C51.49607856 41.386293 44.25546847 42.24835169 37 43 C36.13165527 43.09643799 35.26331055 43.19287598 34.36865234 43.29223633 C23.94373501 44.32354853 13.46615053 44.28679111 3 44.3125 C1.47347305 44.31642761 1.47347305 44.31642761 -0.08389282 44.32043457 C-50.58208452 44.33433238 -50.58208452 44.33433238 -66 32 C-68.38891029 29.61108971 -68.93669594 28.42504156 -69.4375 25.0625 C-68.88700786 21.20905505 -67.61540785 19.85317221 -65 17 C-54.5834059 9.5551534 -43.29030419 6.18222337 -31 3.3125 C-30.08621582 3.09770996 -29.17243164 2.88291992 -28.23095703 2.66162109 C-18.83973174 0.56106275 -9.60781601 -0.15750518 0 0 Z " fill="#3997D7" transform="translate(716,351)"/>
<path d="M0 0 C0.65104167 1.7578125 1.30208333 3.515625 1.953125 5.2734375 C3.38182878 7.62973254 4.39445249 8.05559443 7 9 C36.84957504 15.84969196 72.22167986 13.20340095 102.0390625 6.55078125 C109.48832901 5.16509975 109.48832901 5.16509975 112.87646484 7.03637695 C114.938858 8.45556852 116.90945077 9.949654 118.875 11.5 C119.56335938 12.02464844 120.25171875 12.54929687 120.9609375 13.08984375 C122.65046182 14.38045261 124.32661001 15.68853914 126 17 C119.70521124 23.29478876 106.66296725 24.63659995 98.1875 26.1875 C97.34864258 26.34202637 96.50978516 26.49655273 95.64550781 26.65576172 C80.36528701 29.29611507 65.32080827 30.3303667 49.83203125 30.26074219 C47.00238637 30.25000905 44.17337602 30.26071788 41.34375 30.2734375 C-1.58478602 30.30794934 -1.58478602 30.30794934 -14.6796875 19.3671875 C-16.83850058 17.13173017 -17.01725028 15.84762252 -17.375 12.6875 C-17 9 -17 9 -14.875 6.3125 C-6.283084 -0.59838895 -6.283084 -0.59838895 0 0 Z " fill="#3997D7" transform="translate(693,409)"/>
<path d="M0 0 C0.25265625 0.80824219 0.5053125 1.61648438 0.765625 2.44921875 C1.77606381 5.26285431 1.77606381 5.26285431 4.72265625 6.109375 C6.37587891 6.42648437 6.37587891 6.42648437 8.0625 6.75 C9.14660156 6.97171875 10.23070312 7.1934375 11.34765625 7.421875 C20.31968222 8.84204596 29.09964029 9.22807513 38.1875 9.25 C39.17253006 9.25250763 39.17253006 9.25250763 40.17745972 9.25506592 C48.88533524 9.25638559 57.436292 8.86863705 66.0625 7.625 C66.95904297 7.49609375 67.85558594 7.3671875 68.77929688 7.234375 C72.45282365 6.6687905 75.97720773 6.00613446 79.5703125 5.0390625 C89.7443995 2.46366704 97.29177439 7.0663789 106.12158203 11.80151367 C108.02999522 13.01913784 109.46836357 14.34127542 111 16 C100.28171691 21.0881246 89.54527652 24.35736635 78 27 C77.32114746 27.16661133 76.64229492 27.33322266 75.94287109 27.50488281 C54.89296933 32.56440138 28.96096211 32.24024053 8 27 C6.79859375 26.70996094 5.5971875 26.41992188 4.359375 26.12109375 C-3.7028943 23.92145635 -11.46298028 20.5043304 -17 14 C-17.625 10.6875 -17.625 10.6875 -17 7 C-12.88062116 1.92289443 -6.62076016 -2.68409196 0 0 Z " fill="#3997D7" transform="translate(703,454)"/>
<path d="M0 0 C6.18366621 5.10152463 10.92653756 11.28032886 11.875 19.38671875 C12.43523401 30.25876007 8.63451334 40.97194364 1.625 49.25 C-9.90250996 61.53756556 -27.19825591 67.12661745 -43.125 71.1875 C-43.99503662 71.41123291 -44.86507324 71.63496582 -45.76147461 71.86547852 C-46.57753174 72.06326904 -47.39358887 72.26105957 -48.234375 72.46484375 C-48.96108398 72.64136475 -49.68779297 72.81788574 -50.43652344 72.99975586 C-52.375 73.25 -52.375 73.25 -55.375 72.25 C-54.82150879 71.89808594 -54.26801758 71.54617188 -53.69775391 71.18359375 C-38.98076206 61.97703932 -38.98076206 61.97703932 -25.375 51.25 C-24.57835937 50.54617188 -23.78171875 49.84234375 -22.9609375 49.1171875 C-15.67231008 42.30338923 -11.00270647 34.86697657 -10.171875 24.78515625 C-10.05167516 18.44461464 -10.58619841 14.28756793 -15.0390625 9.4375 C-23.67043974 1.18439029 -32.81298562 0.72695365 -44.375 0.25 C-33.53484647 -11.50992413 -11.88992043 -8.25751589 0 0 Z " fill="#3997D6" transform="translate(886.375,357.75)"/>
<path d="M0 0 C0.5775 0.73992187 1.155 1.47984375 1.75 2.2421875 C3.73767311 4.67846738 5.77456877 6.90826187 8 9.125 C8.99 10.11886719 8.99 10.11886719 10 11.1328125 C11.91097469 12.91688653 13.8787905 14.47538067 16 16 C15.38125 16.0825 14.7625 16.165 14.125 16.25 C11.85217195 16.77462381 11.85217195 16.77462381 11.11010742 18.79394531 C9.7949975 21.40739006 8.20534128 23.00520572 6.11328125 25.046875 C5.33919922 25.81 4.56511719 26.573125 3.76757812 27.359375 C2.95740234 28.14828125 2.14722656 28.9371875 1.3125 29.75 C-3.80053717 34.75052535 -8.76672236 39.77121215 -13.42504883 45.20019531 C-15.66859011 47.76404376 -18.06219854 50.11955857 -20.5 52.5 C-24.23306083 56.17725832 -27.7651301 59.95387824 -31.1640625 63.94140625 C-34.91417982 68.14632503 -38.98117205 72.0539476 -43 76 C-47.66666667 71.33333333 -52.33333333 66.66666667 -57 62 C-55.5158627 58.51345524 -53.53785948 56.35808928 -50.8125 53.75 C-47.34480757 50.35948991 -44.09231421 46.89147779 -40.9296875 43.21875 C-34.94153429 36.33358599 -28.74147588 29.66183275 -22.25 23.25 C-18.6014297 19.64271479 -15.16224415 15.96091935 -11.8359375 12.05859375 C-8.08582018 7.85367497 -4.01882795 3.9460524 0 0 Z " fill="#3896D7" transform="translate(579,270)"/>
<path d="M0 0 C5.47209653 3.2539618 10.12691484 8.11859999 12.48046875 14.08984375 C13.30798351 21.65071547 13.80049454 29.22557501 8.9765625 35.51171875 C4.65522999 40.06999116 0.52111441 43.7217097 -5.875 44.49609375 C-13.11256245 44.6731595 -18.80601055 44.63893284 -24.71484375 39.9453125 C-30.42222443 34.07733453 -32.96651875 28.00639204 -32.859375 19.8515625 C-31.94996856 12.46132855 -27.99104345 6.79469409 -22.265625 2.24609375 C-15.75437868 -2.06560404 -7.40595323 -2.67532884 0 0 Z " fill="#272F37" transform="translate(635.51953125,751.91015625)"/>
<path d="M0 0 C0.33 0 0.66 0 1 0 C1.61713324 4.11422161 0.97297931 6.57804187 -1.3125 9.9375 C-20.04979126 32.86775155 -63.90678181 36.37255855 -91.12646484 39.22265625 C-121.33356498 42.116381 -152.47536246 40.07605418 -182.4375 36.0625 C-183.61610596 35.90491211 -184.79471191 35.74732422 -186.0090332 35.58496094 C-193.48230052 34.52153743 -200.71616265 32.97927663 -208 31 C-208 30.67 -208 30.34 -208 30 C-207.13797974 30.0702388 -206.27595947 30.1404776 -205.38781738 30.21284485 C-194.90481504 30.99702858 -184.47800252 31.16347541 -173.96875 31.16796875 C-172.16198706 31.17119546 -170.35522436 31.1745605 -168.54846191 31.17805481 C-164.78002316 31.18399949 -161.01160717 31.18589965 -157.24316406 31.18530273 C-153.42866251 31.18522166 -149.61428153 31.19214123 -145.79980469 31.20581055 C-115.83726828 31.42692311 -115.83726828 31.42692311 -86 29 C-85.29609131 28.91076263 -84.59218262 28.82152527 -83.86694336 28.72958374 C-79.55943623 28.16821389 -75.28000278 27.49036539 -71 26.75 C-69.7423584 26.53529053 -68.4847168 26.32058105 -67.18896484 26.09936523 C-30.4242895 19.86177889 -30.4242895 19.86177889 0 0 Z " fill="#3996D4" transform="translate(889,498)"/>
<path d="M0 0 C5.49760604 3.13021588 8.57852461 7.18526852 10.6875 13.125 C11.76589663 19.67120452 11.35260597 25.65632633 7.9609375 31.44140625 C5.0134486 35.33823974 1.23906183 38.31390734 -3.3125 40.125 C-9.1824841 40.73988262 -15.93089316 41.38028515 -21.3125 38.5625 C-26.76405244 34.13311365 -31.6544961 29.36846856 -32.5625 22.1328125 C-32.89658257 16.09844613 -31.58542446 11.21621582 -28.3125 6.125 C-20.71126273 -2.30480816 -10.52885118 -4.50100436 0 0 Z " fill="#272E37" transform="translate(732.3125,651.875)"/>
<path d="M0 0 C4.77601073 3.50514092 7.96758874 7.71039445 9.8203125 13.3359375 C10.72899821 20.40466706 10.14685739 26.53760607 5.8203125 32.3359375 C0.88607445 37.70027862 -3.72484123 40.05732086 -11.0546875 40.6484375 C-16.54480977 40.44974736 -21.07026957 39.28787433 -25.16796875 35.49609375 C-30.87108265 29.15536464 -32.66585093 24.96101644 -32.48828125 16.375 C-31.85548676 10.14317576 -29.32627103 6.12464655 -24.7421875 1.9609375 C-17.28934929 -3.82523225 -8.35089852 -4.76711211 0 0 Z " fill="#272E37" transform="translate(631.1796875,567.6640625)"/>
<path d="M0 0 C5.66399881 2.86367725 9.88967571 8.43855838 11.87109375 14.3828125 C12.84686368 21.97987839 11.46337157 28.18653334 6.87109375 34.3828125 C1.56210215 38.88615946 -3.8003922 40.7832868 -10.72265625 40.6484375 C-15.8737206 40.07981351 -19.57321626 38.22596695 -22.92578125 34.25390625 C-27.40561314 27.77948254 -29.04876143 22.25988218 -28.12890625 14.3828125 C-26.04985013 7.72983292 -22.19583759 3.85606411 -16.3046875 0.2734375 C-11.37096687 -1.74611062 -5.07527752 -1.47136486 0 0 Z " fill="#272E37" transform="translate(825.12890625,580.6171875)"/>
<path d="M0 0 C4.41417597 2.02170659 7.17230181 4.86191499 10 8.75 C11.75445528 14.45197966 12.1931897 20.33036273 9.5 25.8125 C6.34042926 30.47452395 2.07361294 33.39991367 -3.4609375 34.48046875 C-9.82107131 34.84250714 -14.21792295 33.16360981 -19 29 C-23.32446902 24.23199569 -24.23624322 19.28612384 -24 13 C-22.30047376 7.47653973 -18.52344229 4.34625731 -14 1 C-9.75189378 -1.12405311 -4.60097233 -0.60463341 0 0 Z " fill="#262E3A" transform="translate(621,235)"/>
<path d="M0 0 C104.94 0 209.88 0 318 0 C315.43351691 2.56648309 314.4784401 2.25307884 310.91251945 2.26171303 C309.28676737 2.27291127 309.28676737 2.27291127 307.6281718 2.28433573 C306.42780351 2.282401 305.22743522 2.28046626 303.99069214 2.2784729 C302.08927702 2.2871615 302.08927702 2.2871615 300.14944947 2.29602563 C296.61946425 2.31188716 293.08955849 2.31525967 289.55954194 2.31667423 C285.75720067 2.3203576 281.95490354 2.33550768 278.15258789 2.34928894 C271.56099786 2.37159915 264.96942346 2.38658977 258.3778038 2.39665604 C248.84734919 2.4112208 239.31694898 2.43675135 229.78652622 2.46498732 C214.3253092 2.51049547 198.86408438 2.5470936 183.40283203 2.578125 C168.38068264 2.6082941 153.3585524 2.64263679 138.33642578 2.68261719 C136.94826101 2.68630951 136.94826101 2.68630951 135.5320525 2.69007643 C130.8895315 2.70245071 126.24701072 2.7149073 121.60449004 2.72740483 C83.0696864 2.83103283 44.5348596 2.92006834 6 3 C8.97 5.64 11.94 8.28 15 11 C10.80802878 11 8.83707618 8.67382431 5.8125 6.0625 C5.25369141 5.59392578 4.69488281 5.12535156 4.11914062 4.64257812 C2.72161432 3.4566431 1.35766377 2.23136946 0 1 C0 0.67 0 0.34 0 0 Z " fill="#242224" transform="translate(228,834)"/>
<path d="M0 0 C4.01354394 2.04325873 6.62453347 4.19654646 9 8 C9.78607483 12.33651281 9.98763212 16.93938483 8.05078125 20.98046875 C5.53871303 24.18989344 2.93568167 26.08472519 -1 27 C-5.7378357 27.45122245 -7.98694045 27.50652977 -12.25 25.375 C-16.37859409 21.80939601 -18.71675172 18.98273798 -19.5 13.5 C-18.75299309 8.27095166 -16.3206756 5.4760492 -12.875 1.625 C-8.61604292 -0.78223661 -4.78102419 -0.76618977 0 0 Z " fill="#252E3B" transform="translate(367,477)"/>
<path d="M0 0 C3.96287066 1.37055803 6.5335833 3.32294351 8.9375 6.8125 C10.18082407 10.54247221 10.48864783 13.09081737 10 17 C7.56506082 21.86987836 5.15055847 24.21711438 0 26 C-4.53294426 26.73433697 -7.2861561 26.38336061 -11.375 24.1875 C-14.19647107 21.83627411 -15.79668977 20.227681 -16.40625 16.546875 C-16.57924801 11.38576777 -16.56767793 7.92224576 -13.125 3.875 C-9.16383046 -0.12444171 -5.55861454 -0.71238562 0 0 Z " fill="#272E37" transform="translate(781,747)"/>
<path d="M0 0 C4.03748531 2.0935109 6.35107136 3.76542739 8 8 C8.34050529 12.88057582 7.66327491 16.18366164 4.5625 20 C0.97950079 22.79648719 -1.29093662 23.39291667 -5.89453125 23.359375 C-9.61593453 22.72418186 -11.40312849 20.66020984 -14 18 C-15.85726616 14.28546768 -15.58501089 10.04420575 -15 6 C-10.74621281 0.51485336 -6.84209908 -0.92838891 0 0 Z " fill="#262D35" transform="translate(567,427)"/>
<path d="M0 0 C1.29357422 0.09087891 1.29357422 0.09087891 2.61328125 0.18359375 C6.74151718 0.4669468 10.8704415 0.73671121 15 1 C15.67239212 1.04293686 16.34478424 1.08587372 17.03755188 1.13011169 C31.9115365 2.05368096 46.78941822 2.31565953 61.6875 2.5625 C64.15430221 2.60581708 66.62109916 2.64943491 69.08789062 2.69335938 C75.05853767 2.79903205 81.02923839 2.90102321 87 3 C87 3.33 87 3.66 87 4 C69.18 4.33 51.36 4.66 33 5 C33 5.33 33 5.66 33 6 C26.11670749 6.21114394 19.8683513 5.46795556 13.125 4.125 C12.18914063 3.95097656 11.25328125 3.77695312 10.2890625 3.59765625 C3.38889153 2.25926102 3.38889153 2.25926102 0 0 Z " fill="#3BA8E9" transform="translate(681,528)"/>
<path d="M0 0 C0.33 0 0.66 0 1 0 C1.61713324 4.11422161 0.97297931 6.57804187 -1.3125 9.9375 C-6.92739958 16.86342566 -16.40207809 22.56392212 -25 25 C-25.99 24.67 -26.98 24.34 -28 24 C-26.86820313 23.44570313 -25.73640625 22.89140625 -24.5703125 22.3203125 C-23.08843697 21.5887537 -21.60667185 20.85697122 -20.125 20.125 C-19.37863281 19.76019531 -18.63226562 19.39539063 -17.86328125 19.01953125 C-16.79013672 18.48779297 -16.79013672 18.48779297 -15.6953125 17.9453125 C-15.03547363 17.62062988 -14.37563477 17.29594727 -13.69580078 16.96142578 C-11.81965314 15.99724181 -11.81965314 15.99724181 -10 14 C-10.66 13.34 -11.32 12.68 -12 12 C-13.98 12.66 -15.96 13.32 -18 14 C-14.7870371 10.44085928 -10.75384437 8.28703188 -6.69140625 5.81640625 C-4.12344147 4.08330956 -2.14280681 2.22090455 0 0 Z " fill="#3B9FDF" transform="translate(889,498)"/>
<path d="M0 0 C1.32 0.66 2.64 1.32 4 2 C3.30688721 2.20415527 2.61377441 2.40831055 1.8996582 2.61865234 C-1.96402145 4.45924336 -4.43322401 7.05906966 -7.39453125 10.1015625 C-7.98674973 10.69802582 -8.5789682 11.29448914 -9.18913269 11.9090271 C-11.07077354 13.80740103 -12.94168823 15.71595933 -14.8125 17.625 C-16.08980001 18.91735373 -17.36778747 20.20902839 -18.64648438 21.5 C-21.77234164 24.65885529 -24.88862334 27.8268834 -28 31 C-28.66 30.67 -29.32 30.34 -30 30 C-20.1 20.1 -10.2 10.2 0 0 Z " fill="#241A19" transform="translate(546,466)"/>
<path d="M0 0 C5.88240079 4.14779657 10.9812156 8.72650546 16 13.875 C16.67933594 14.56335938 17.35867188 15.25171875 18.05859375 15.9609375 C19.71046886 17.63607846 21.35743925 19.3157336 23 21 C22.67 21.66 22.34 22.32 22 23 C21.2589502 22.23538452 21.2589502 22.23538452 20.50292969 21.45532227 C18.25984949 19.1498758 16.00514309 16.85614553 13.75 14.5625 C12.97269531 13.76005859 12.19539062 12.95761719 11.39453125 12.13085938 C10.64042969 11.36708984 9.88632812 10.60332031 9.109375 9.81640625 C8.41811523 9.10943604 7.72685547 8.40246582 7.01464844 7.67407227 C4.9106333 5.92574074 3.70958199 5.2428399 1 5 C-1.72981832 6.35400645 -1.72981832 6.35400645 -4 8 C-2.87548273 5.0280615 -1.77706209 2.66559313 0 0 Z " fill="#121924" transform="translate(806,191)"/>
<path d="M0 0 C0.66 0.33 1.32 0.66 2 1 C1.360625 1.20625 0.72125 1.4125 0.0625 1.625 C-2.34925077 2.89538209 -2.34925077 2.89538209 -2.75 6.125 C-2.8325 7.07375 -2.915 8.0225 -3 9 C-4.76774419 9.53122363 -6.53934083 10.04964073 -8.3125 10.5625 C-9.29863281 10.85253906 -10.28476562 11.14257812 -11.30078125 11.44140625 C-14 12 -14 12 -17 11 C-14.21681883 9.13284189 -11.42220667 7.28356646 -8.625 5.4375 C-7.8309375 4.90447266 -7.036875 4.37144531 -6.21875 3.82226562 C-5.45820312 3.32275391 -4.69765625 2.82324219 -3.9140625 2.30859375 C-2.8614624 1.60947876 -2.8614624 1.60947876 -1.78759766 0.89624023 C-1.19769043 0.60048096 -0.6077832 0.30472168 0 0 Z " fill="#3A9EDA" transform="translate(848,419)"/>
<path d="M0 0 C0.33 1.32 0.66 2.64 1 4 C0.33355469 4.52207031 -0.33289063 5.04414062 -1.01953125 5.58203125 C-8.18787372 11.30667957 -14.62852348 17.40669257 -21 24 C-21 21 -21 21 -19.07226562 18.73168945 C-18.19248047 17.86761475 -17.31269531 17.00354004 -16.40625 16.11328125 C-15.94013306 15.65140915 -15.47401611 15.18953705 -14.99377441 14.71366882 C-13.5027371 13.23943048 -12.00161128 11.77595912 -10.5 10.3125 C-9.48759946 9.31514472 -8.47587189 8.31710583 -7.46484375 7.31835938 C-4.98432371 4.87092436 -2.49464911 2.43304113 0 0 Z " fill="#3AA6E9" transform="translate(318,514)"/>
<path d="M0 0 C0 3.97928253 -1.30923496 4.76151693 -4 7.625 C-4.81339844 8.5015625 -5.62679687 9.378125 -6.46484375 10.28125 C-7.30144531 11.1784375 -8.13804687 12.075625 -9 13 C-10.5259064 14.70380353 -12.04717033 16.41178291 -13.5625 18.125 C-14.55443359 19.24261719 -14.55443359 19.24261719 -15.56640625 20.3828125 C-16.27603516 21.18332031 -16.27603516 21.18332031 -17 22 C-17.66 21.67 -18.32 21.34 -19 21 C-16.86595734 18.62884148 -14.73188578 16.25770908 -12.59765625 13.88671875 C-10.87572564 11.97317481 -9.15436469 10.0591181 -7.43359375 8.14453125 C-6.63050781 7.25121094 -5.82742188 6.35789062 -5 5.4375 C-4.2575 4.61121094 -3.515 3.78492188 -2.75 2.93359375 C-1.85059394 1.93983036 -0.94775971 0.94775971 0 0 Z " fill="#39A4E6" transform="translate(681,703)"/>
<path d="M0 0 C0.33 0.66 0.66 1.32 1 2 C0.30519531 2.68449219 -0.38960937 3.36898438 -1.10546875 4.07421875 C-4.26699763 7.23574763 -7.29021864 10.51847038 -10.3125 13.8125 C-10.86228516 14.40998047 -11.41207031 15.00746094 -11.97851562 15.62304688 C-13.31996978 17.08114922 -14.66012065 18.5404504 -16 20 C-16.66 19.67 -17.32 19.34 -18 19 C-12.12628112 12.53147414 -6.24971273 6.11083023 0 0 Z " fill="#261D1D" transform="translate(567,313)"/>
<path d="M0 0 C1.21236328 0.02707031 1.21236328 0.02707031 2.44921875 0.0546875 C3.37154297 0.08949219 3.37154297 0.08949219 4.3125 0.125 C4.3125 1.445 4.3125 2.765 4.3125 4.125 C-2.1875 7.25 -2.1875 7.25 -6.6875 6.125 C-4.0475 5.135 -1.4075 4.145 1.3125 3.125 C-1.6575 2.795 -4.6275 2.465 -7.6875 2.125 C-4.48369983 -0.01086678 -3.66810033 -0.10632175 0 0 Z " fill="#3CA3E4" transform="translate(670.6875,465.875)"/>
<path d="M0 0 C0.99 0.33 1.98 0.66 3 1 C3.27585937 1.56203125 3.55171875 2.1240625 3.8359375 2.703125 C5.48790914 5.96272005 8.0285777 8.23924646 10.625 10.75 C11.3984375 11.50990234 11.3984375 11.50990234 12.1875 12.28515625 C13.45383339 13.52803902 14.7263144 14.76465276 16 16 C15.67 16.66 15.34 17.32 15 18 C9.72 12.72 4.44 7.44 -1 2 C-0.67 1.34 -0.34 0.68 0 0 Z " fill="#38A7EE" transform="translate(382,518)"/>
<path d="M0 0 C0.33 0.66 0.66 1.32 1 2 C0.505 2.5775 0.01 3.155 -0.5 3.75 C-2.36980013 6.10400629 -2.36980013 6.10400629 -2 10 C-5.75 11.125 -5.75 11.125 -8 10 C-5.36 6.7 -2.72 3.4 0 0 Z " fill="#218DE5" transform="translate(393,506)"/>
<path d="M0 0 C-1.65 1.98 -3.3 3.96 -5 6 C-5.66 5.67 -6.32 5.34 -7 5 C-7.625 2.9375 -7.625 2.9375 -8 1 C-5.29120665 -0.35439668 -2.99066732 -0.06501451 0 0 Z " fill="#3BA3E2" transform="translate(833,370)"/>
<path d="M0 0 C0.33 0.66 0.66 1.32 1 2 C-2.49359465 5.59634744 -6.11098131 8.83451967 -10 12 C-8.52278578 8.54798361 -6.56205999 6.35038064 -3.875 3.75 C-3.15054688 3.04359375 -2.42609375 2.3371875 -1.6796875 1.609375 C-1.12539063 1.07828125 -0.57109375 0.5471875 0 0 Z " fill="#261D1C" transform="translate(699,711)"/>
<path d="M0 0 C2.0625 0.4375 2.0625 0.4375 4 1 C1.3401439 4.44216672 -1.90288286 4.99504674 -6 6 C-6 5.34 -6 4.68 -6 4 C-4.36368108 2.95107762 -2.69514137 1.95093297 -1 1 C-0.67 0.67 -0.34 0.34 0 0 Z " fill="#EBB63B" transform="translate(377,517)"/>
<path d="M0 0 C0.66 0.33 1.32 0.66 2 1 C1.360625 1.20625 0.72125 1.4125 0.0625 1.625 C-2.34925077 2.89538209 -2.34925077 2.89538209 -2.75 6.125 C-2.8325 7.07375 -2.915 8.0225 -3 9 C-3.99 8.67 -4.98 8.34 -6 8 C-5.67 7.67 -5.34 7.34 -5 7 C-5.66 6.34 -6.32 5.68 -7 5 C-4.69 3.35 -2.38 1.7 0 0 Z " fill="#3CA4E8" transform="translate(848,419)"/>
<path d="M0 0 C2.51896049 1.119538 4.39734655 2.31981552 6.5625 4.0625 C8.92026019 6.16384349 8.92026019 6.16384349 12 7 C11.67 7.99 11.34 8.98 11 10 C9.72390677 9.09066991 8.45434447 8.17217147 7.1875 7.25 C6.47980469 6.73953125 5.77210938 6.2290625 5.04296875 5.703125 C2.97022309 3.97517642 1.52624146 2.21473524 0 0 Z " fill="#122839" transform="translate(511,321)"/>
<path d="M0 0 C0 3.23830467 -0.29194726 4.31591712 -2 7 C-4.625 9.25 -4.625 9.25 -7 11 C-5.5140084 6.40693504 -3.14985318 3.56430755 0 0 Z " fill="#152A39" transform="translate(466,351)"/>
<path d="M0 0 C-3.87564767 3.61139896 -3.87564767 3.61139896 -6 5 C-8.375 4.8125 -8.375 4.8125 -10 4 C-4.4 -2.2 -4.4 -2.2 0 0 Z " fill="#E36746" transform="translate(827,227)"/>
<path d="M0 0 C1.4370809 -0.05422947 2.87475462 -0.09289723 4.3125 -0.125 C5.11300781 -0.14820312 5.91351562 -0.17140625 6.73828125 -0.1953125 C9 0 9 0 12 2 C11 3 11 3 8.8125 3.1875 C5.60964058 2.97397604 2.99801865 2.11554182 0 1 C0 0.67 0 0.34 0 0 Z " fill="#191E26" transform="translate(576,86)"/>
<path d="M0 0 C1.43583001 -0.10836453 2.8740202 -0.18576167 4.3125 -0.25 C5.11300781 -0.29640625 5.91351562 -0.3428125 6.73828125 -0.390625 C9 0 9 0 12 4 C6.06 2.515 6.06 2.515 0 1 C0 0.67 0 0.34 0 0 Z " fill="#3BA3E4" transform="translate(853,357)"/>
<path d="M0 0 C0.66 0.33 1.32 0.66 2 1 C-0.31 3.64 -2.62 6.28 -5 9 C-5.66 8.67 -6.32 8.34 -7 8 C-4.69 5.36 -2.38 2.72 0 0 Z " fill="#272427" transform="translate(556,324)"/>
<path d="M0 0 C0.33 0 0.66 0 1 0 C2.23076923 5.41538462 2.23076923 5.41538462 1.0625 8.375 C0.711875 8.91125 0.36125 9.4475 0 10 C-0.99 9.67 -1.98 9.34 -3 9 C-2.01 6.03 -1.02 3.06 0 0 Z " fill="#262428" transform="translate(891,497)"/>
<path d="M0 0 C0 0.99 0 1.98 0 3 C-6.625 3.25 -6.625 3.25 -10 1 C-6.52674819 -0.1577506 -3.63932552 -0.06866652 0 0 Z " fill="#378CC7" transform="translate(344,393)"/>
<path d="M0 0 C0 4.38968456 -2.12805101 5.76905739 -5 9 C-5.66 8.67 -6.32 8.34 -7 8 C-4.69 5.36 -2.38 2.72 0 0 Z " fill="#3AA4E4" transform="translate(540,311)"/>
<path d="M0 0 C1.65 0 3.3 0 5 0 C5 0.66 5 1.32 5 2 C6.65 2.33 8.3 2.66 10 3 C6.18510326 4.46726798 3.70988378 3.43336419 0 2 C0 1.34 0 0.68 0 0 Z " fill="#3AA2E2" transform="translate(635,505)"/>
<path d="M0 0 C0.33 0.99 0.66 1.98 1 3 C-2.3 3 -5.6 3 -9 3 C-4.5 -0.375 -4.5 -0.375 0 0 Z " fill="#3891CD" transform="translate(762,463)"/>
<path d="M0 0 C3 1 3 1 5 3 C1.7 3.33 -1.6 3.66 -5 4 C-2 1 -2 1 0 0 Z " fill="#3DAEED" transform="translate(847,354)"/>
<path d="M0 0 C0.86625 0.556875 0.86625 0.556875 1.75 1.125 C1.110625 1.228125 0.47125 1.33125 -0.1875 1.4375 C-0.868125 1.664375 -1.54875 1.89125 -2.25 2.125 C-2.58 3.115 -2.91 4.105 -3.25 5.125 C-3.58 4.135 -3.91 3.145 -4.25 2.125 C-4.91 1.795 -5.57 1.465 -6.25 1.125 C-2.80384615 -1.09038462 -2.80384615 -1.09038462 0 0 Z " fill="#3B91C3" transform="translate(593.25,284.875)"/>
<path d="M0 0 C0.66 0 1.32 0 2 0 C1.60196439 2.88575819 1.20990931 3.82189513 -1.0625 5.75 C-1.701875 6.1625 -2.34125 6.575 -3 7 C-1.125 1.125 -1.125 1.125 0 0 Z " fill="#26282D" transform="translate(770,749)"/>
</svg>
